<svg width="24" height="24" viewBox="0 0 24 24" fill="none" xmlns="http://www.w3.org/2000/svg">
<path d="M5.88889 15.3333H10.8889V13.6667H7.55556V12.5556H9.77778C10.0926 12.5556 10.3567 12.4489 10.57 12.2356C10.7833 12.0222 10.8896 11.7585 10.8889 11.4444V9.77778C10.8889 9.46296 10.7822 9.19926 10.5689 8.98667C10.3556 8.77407 10.0919 8.66741 9.77778 8.66667H5.88889V10.3333H9.22222V11.4444H7C6.68518 11.4444 6.42148 11.5511 6.20889 11.7644C5.9963 11.9778 5.88963 12.2415 5.88889 12.5556V15.3333ZM13.1111 15.3333H17.5556C17.8704 15.3333 18.1344 15.2267 18.3478 15.0133C18.5611 14.8 18.6674 14.5363 18.6667 14.2222V9.77778C18.6667 9.46296 18.56 9.19926 18.3467 8.98667C18.1333 8.77407 17.8696 8.66741 17.5556 8.66667H13.1111V15.3333ZM14.7778 13.6667V10.3333H17V13.6667H14.7778ZM4.22222 22C3.61111 22 3.08815 21.7826 2.65333 21.3478C2.21852 20.913 2.00074 20.3896 2 19.7778V4.22222C2 3.61111 2.21778 3.08815 2.65333 2.65333C3.08889 2.21852 3.61185 2.00074 4.22222 2H19.7778C20.3889 2 20.9122 2.21778 21.3478 2.65333C21.7833 3.08889 22.0007 3.61185 22 4.22222V19.7778C22 20.3889 21.7826 20.9122 21.3478 21.3478C20.913 21.7833 20.3896 22.0007 19.7778 22H4.22222ZM4.22222 19.7778H19.7778V4.22222H4.22222V19.7778Z" fill="black"/>
</svg>
