<svg width="32" height="32" viewBox="0 0 32 32" fill="none" xmlns="http://www.w3.org/2000/svg">
    <g transform="translate(12,12)">
        <path
            d="M3.5 0.5C3.5 0.223858 3.72386 0 4 0C4.27614 0 4.5 0.223858 4.5 0.5V7.5C4.5 7.77614 4.27614 8 4 8C3.72386 8 3.5 7.77614 3.5 7.5V0.5Z"
            fill="#cccccc" />
        <path
            d="M7.5 3.5C7.77614 3.5 8 3.72386 8 4C8 4.27614 7.77614 4.5 7.5 4.5L0.5 4.5C0.223858 4.5 -1.20706e-08 4.27614 0 4C1.20706e-08 3.72386 0.223858 3.5 0.5 3.5L7.5 3.5Z"
            fill="#cccccc" />
    </g>
</svg>